<svg id="visual" viewBox="0 0 675 900" width="675" height="900" xmlns="http://www.w3.org/2000/svg" xmlns:xlink="http://www.w3.org/1999/xlink" version="1.1"><g stroke-width="1" stroke-linejoin="bevel"><path d="M333.5 588L304.5 308L0 601Z" fill="#e4e2e0" stroke="#e4e2e0"></path><path d="M304.5 308L0 307L0 601Z" fill="#d6d5d3" stroke="#d6d5d3"></path><path d="M0 601L332.5 900L333.5 588Z" fill="#d2d2d0" stroke="#d2d2d0"></path><path d="M0 900L332.5 900L0 601Z" fill="#e0dfdd" stroke="#e0dfdd"></path><path d="M675 317L318.5 0L304.5 308Z" fill="#f6f2f2" stroke="#f6f2f2"></path><path d="M304.5 308L0 0L0 307Z" fill="#d2d2d0" stroke="#d2d2d0"></path><path d="M318.5 0L0 0L304.5 308Z" fill="#e0dfdd" stroke="#e0dfdd"></path><path d="M675 900L675 581L333.5 588Z" fill="#f3efee" stroke="#f3efee"></path><path d="M333.5 588L675 317L304.5 308Z" fill="#dddcd9" stroke="#dddcd9"></path><path d="M675 581L675 317L333.5 588Z" fill="#d6d5d3" stroke="#d6d5d3"></path><path d="M332.5 900L675 900L333.5 588Z" fill="#f6f2f2" stroke="#f6f2f2"></path><path d="M675 317L675 0L318.5 0Z" fill="#d9d8d6" stroke="#d9d8d6"></path></g></svg>