<svg id="visual" viewBox="0 0 675 900" width="675" height="900" xmlns="http://www.w3.org/2000/svg" xmlns:xlink="http://www.w3.org/1999/xlink" version="1.1"><rect x="0" y="0" width="675" height="900" fill="#FFFFFF"></rect><defs><linearGradient id="grad1_0" x1="0%" y1="0%" x2="100%" y2="100%"><stop offset="30%" stop-color="#d5d5cd" stop-opacity="1"></stop><stop offset="70%" stop-color="#d5d5cd" stop-opacity="1"></stop></linearGradient></defs><defs><linearGradient id="grad1_1" x1="0%" y1="0%" x2="100%" y2="100%"><stop offset="30%" stop-color="#d5d5cd" stop-opacity="1"></stop><stop offset="70%" stop-color="#e3e3dd" stop-opacity="1"></stop></linearGradient></defs><defs><linearGradient id="grad1_2" x1="0%" y1="0%" x2="100%" y2="100%"><stop offset="30%" stop-color="#f1f1ee" stop-opacity="1"></stop><stop offset="70%" stop-color="#e3e3dd" stop-opacity="1"></stop></linearGradient></defs><defs><linearGradient id="grad1_3" x1="0%" y1="0%" x2="100%" y2="100%"><stop offset="30%" stop-color="#f1f1ee" stop-opacity="1"></stop><stop offset="70%" stop-color="#ffffff" stop-opacity="1"></stop></linearGradient></defs><defs><linearGradient id="grad2_0" x1="0%" y1="0%" x2="100%" y2="100%"><stop offset="30%" stop-color="#d5d5cd" stop-opacity="1"></stop><stop offset="70%" stop-color="#d5d5cd" stop-opacity="1"></stop></linearGradient></defs><defs><linearGradient id="grad2_1" x1="0%" y1="0%" x2="100%" y2="100%"><stop offset="30%" stop-color="#e3e3dd" stop-opacity="1"></stop><stop offset="70%" stop-color="#d5d5cd" stop-opacity="1"></stop></linearGradient></defs><defs><linearGradient id="grad2_2" x1="0%" y1="0%" x2="100%" y2="100%"><stop offset="30%" stop-color="#e3e3dd" stop-opacity="1"></stop><stop offset="70%" stop-color="#f1f1ee" stop-opacity="1"></stop></linearGradient></defs><defs><linearGradient id="grad2_3" x1="0%" y1="0%" x2="100%" y2="100%"><stop offset="30%" stop-color="#ffffff" stop-opacity="1"></stop><stop offset="70%" stop-color="#f1f1ee" stop-opacity="1"></stop></linearGradient></defs><g transform="translate(675, 0)"><path d="M0 562.5C-48 487.9 -96 413.3 -161.9 390.8C-227.8 368.3 -311.6 398 -377.6 377.6C-443.6 357.1 -491.8 286.6 -519.7 215.3C-547.5 144 -555 72 -562.5 0L0 0Z" fill="#f8f8f7"></path><path d="M0 421.9C-36 365.9 -72 309.9 -121.4 293.1C-170.8 276.3 -233.7 298.5 -283.2 283.2C-332.7 267.9 -368.9 214.9 -389.8 161.4C-410.7 108 -416.3 54 -421.9 0L0 0Z" fill="#eaeae6"></path><path d="M0 281.3C-24 243.9 -48 206.6 -80.9 195.4C-113.9 184.2 -155.8 199 -188.8 188.8C-221.8 178.6 -245.9 143.3 -259.8 107.6C-273.8 72 -277.5 36 -281.2 0L0 0Z" fill="#dcdcd5"></path><path d="M0 140.6C-12 122 -24 103.3 -40.5 97.7C-56.9 92.1 -77.9 99.5 -94.4 94.4C-110.9 89.3 -123 71.6 -129.9 53.8C-136.9 36 -138.8 18 -140.6 0L0 0Z" fill="#d5d5cd"></path></g><g transform="translate(0, 900)"><path d="M0 -562.5C48.6 -502 97.3 -441.6 176.4 -425.9C255.6 -410.2 365.3 -439.4 397.7 -397.7C430.2 -356.1 385.5 -243.8 400 -165.7C414.6 -87.6 488.6 -43.8 562.5 0L0 0Z" fill="#f8f8f7"></path><path d="M0 -421.9C36.5 -376.5 72.9 -331.2 132.3 -319.4C191.7 -307.7 274 -329.5 298.3 -298.3C322.7 -267.1 289.1 -182.8 300 -124.3C311 -65.7 366.4 -32.9 421.9 0L0 0Z" fill="#eaeae6"></path><path d="M0 -281.2C24.3 -251 48.6 -220.8 88.2 -213C127.8 -205.1 182.6 -219.7 198.9 -198.9C215.1 -178.1 192.7 -121.9 200 -82.9C207.3 -43.8 244.3 -21.9 281.3 0L0 0Z" fill="#dcdcd5"></path><path d="M0 -140.6C12.2 -125.5 24.3 -110.4 44.1 -106.5C63.9 -102.6 91.3 -109.8 99.4 -99.4C107.6 -89 96.4 -60.9 100 -41.4C103.7 -21.9 122.1 -11 140.6 0L0 0Z" fill="#d5d5cd"></path></g></svg>