<svg id="visual" viewBox="0 0 960 540" width="960" height="540" xmlns="http://www.w3.org/2000/svg" xmlns:xlink="http://www.w3.org/1999/xlink" version="1.1"><rect x="0" y="0" width="960" height="540" fill="#d2d2d0"></rect><path d="M0 227L137 213L274 225L411 172L549 191L686 226L823 166L960 181L960 0L823 0L686 0L549 0L411 0L274 0L137 0L0 0Z" fill="#c1bdb9"></path><path d="M0 131L137 157L274 163L411 137L549 180L686 132L823 158L960 171L960 0L823 0L686 0L549 0L411 0L274 0L137 0L0 0Z" fill="#cac6c2"></path><path d="M0 123L137 113L274 147L411 131L549 129L686 136L823 112L960 114L960 0L823 0L686 0L549 0L411 0L274 0L137 0L0 0Z" fill="#d3d0cc"></path><path d="M0 96L137 71L274 64L411 94L549 63L686 106L823 71L960 75L960 0L823 0L686 0L549 0L411 0L274 0L137 0L0 0Z" fill="#dcd9d5"></path><path d="M0 28L137 28L274 26L411 35L549 22L686 31L823 24L960 26L960 0L823 0L686 0L549 0L411 0L274 0L137 0L0 0Z" fill="#e5e3df"></path></svg>