<svg id="visual" viewBox="0 0 675 900" width="675" height="900" xmlns="http://www.w3.org/2000/svg" xmlns:xlink="http://www.w3.org/1999/xlink" version="1.1"><g stroke-width="1" stroke-linejoin="bevel"><path d="M342 412L392 355L334 400Z" fill="#dde2d2" stroke="#dde2d2"></path><path d="M443 466L453 361L392 355Z" fill="#dde2d2" stroke="#dde2d2"></path><path d="M416 262L374 295L392 355Z" fill="#cee0d1" stroke="#cee0d1"></path><path d="M392 355L374 295L334 400Z" fill="#e9e4d8" stroke="#e9e4d8"></path><path d="M342 412L443 466L392 355Z" fill="#cee0d1" stroke="#cee0d1"></path><path d="M374 295L277 296L334 400Z" fill="#ede6dc" stroke="#ede6dc"></path><path d="M453 361L416 262L392 355Z" fill="#cee0d1" stroke="#cee0d1"></path><path d="M374 295L316 246L277 296Z" fill="#ede6dc" stroke="#ede6dc"></path><path d="M416 262L411 259L374 295Z" fill="#e9e4d8" stroke="#e9e4d8"></path><path d="M334 400L269 477L342 412Z" fill="#d6e1d1" stroke="#d6e1d1"></path><path d="M342 412L330 531L443 466Z" fill="#f4ecea" stroke="#f4ecea"></path><path d="M201 429L269 477L334 400Z" fill="#f3eae5" stroke="#f3eae5"></path><path d="M411 259L316 246L374 295Z" fill="#dde2d2" stroke="#dde2d2"></path><path d="M443 466L518 405L453 361Z" fill="#cee0d1" stroke="#cee0d1"></path><path d="M453 361L512 337L416 262Z" fill="#f6f2f2" stroke="#f6f2f2"></path><path d="M269 477L330 531L342 412Z" fill="#f3eae5" stroke="#f3eae5"></path><path d="M518 405L512 337L453 361Z" fill="#dde2d2" stroke="#dde2d2"></path><path d="M330 531L368 547L443 466Z" fill="#cee0d1" stroke="#cee0d1"></path><path d="M443 466L499 489L518 405Z" fill="#dde2d2" stroke="#dde2d2"></path><path d="M424 550L499 489L443 466Z" fill="#f0e8e1" stroke="#f0e8e1"></path><path d="M416 262L408 223L411 259Z" fill="#e9e4d8" stroke="#e9e4d8"></path><path d="M411 259L408 223L316 246Z" fill="#e3e3d5" stroke="#e3e3d5"></path><path d="M487 224L408 223L416 262Z" fill="#e3e3d5" stroke="#e3e3d5"></path><path d="M228 243L214 316L277 296Z" fill="#dde2d2" stroke="#dde2d2"></path><path d="M277 296L214 316L334 400Z" fill="#cee0d1" stroke="#cee0d1"></path><path d="M368 547L424 550L443 466Z" fill="#e9e4d8" stroke="#e9e4d8"></path><path d="M214 316L201 429L334 400Z" fill="#f4ecea" stroke="#f4ecea"></path><path d="M290 581L361 580L330 531Z" fill="#f3eae5" stroke="#f3eae5"></path><path d="M214 316L185 357L201 429Z" fill="#f5efee" stroke="#f5efee"></path><path d="M330 531L361 580L368 547Z" fill="#e3e3d5" stroke="#e3e3d5"></path><path d="M368 547L361 580L424 550Z" fill="#f0e8e1" stroke="#f0e8e1"></path><path d="M258 564L330 531L269 477Z" fill="#cee0d1" stroke="#cee0d1"></path><path d="M512 337L487 224L416 262Z" fill="#d6e1d1" stroke="#d6e1d1"></path><path d="M249 154L228 243L316 246Z" fill="#f3eae5" stroke="#f3eae5"></path><path d="M316 246L228 243L277 296Z" fill="#f3eae5" stroke="#f3eae5"></path><path d="M162 270L157 362L185 357Z" fill="#d6e1d1" stroke="#d6e1d1"></path><path d="M563 490L569 399L518 405Z" fill="#f0e8e1" stroke="#f0e8e1"></path><path d="M518 405L569 399L512 337Z" fill="#f6f2f2" stroke="#f6f2f2"></path><path d="M512 337L602 270L487 224Z" fill="#e9e4d8" stroke="#e9e4d8"></path><path d="M199 545L258 564L269 477Z" fill="#cee0d1" stroke="#cee0d1"></path><path d="M258 564L290 581L330 531Z" fill="#f4ecea" stroke="#f4ecea"></path><path d="M162 270L185 357L214 316Z" fill="#e3e3d5" stroke="#e3e3d5"></path><path d="M185 357L157 362L201 429Z" fill="#f5efee" stroke="#f5efee"></path><path d="M201 429L172 485L269 477Z" fill="#f6f2f2" stroke="#f6f2f2"></path><path d="M506 595L563 490L499 489Z" fill="#dde2d2" stroke="#dde2d2"></path><path d="M499 489L563 490L518 405Z" fill="#e9e4d8" stroke="#e9e4d8"></path><path d="M506 595L499 489L424 550Z" fill="#cee0d1" stroke="#cee0d1"></path><path d="M157 362L172 485L201 429Z" fill="#f0e8e1" stroke="#f0e8e1"></path><path d="M172 485L175 497L269 477Z" fill="#e9e4d8" stroke="#e9e4d8"></path><path d="M487 224L443 172L408 223Z" fill="#e9e4d8" stroke="#e9e4d8"></path><path d="M408 223L328 153L316 246Z" fill="#e3e3d5" stroke="#e3e3d5"></path><path d="M175 497L199 545L269 477Z" fill="#f3eae5" stroke="#f3eae5"></path><path d="M334 705L341 702L290 581Z" fill="#d6e1d1" stroke="#d6e1d1"></path><path d="M342 143L328 153L408 223Z" fill="#e9e4d8" stroke="#e9e4d8"></path><path d="M563 490L603 416L569 399Z" fill="#ede6dc" stroke="#ede6dc"></path><path d="M569 399L602 270L512 337Z" fill="#f4ecea" stroke="#f4ecea"></path><path d="M156 263L162 270L228 243Z" fill="#f6f2f2" stroke="#f6f2f2"></path><path d="M228 243L162 270L214 316Z" fill="#f3eae5" stroke="#f3eae5"></path><path d="M443 172L342 143L408 223Z" fill="#d6e1d1" stroke="#d6e1d1"></path><path d="M163 162L156 263L228 243Z" fill="#d6e1d1" stroke="#d6e1d1"></path><path d="M249 154L316 246L328 153Z" fill="#cee0d1" stroke="#cee0d1"></path><path d="M162 270L87 315L157 362Z" fill="#f6f2f2" stroke="#f6f2f2"></path><path d="M429 634L506 595L424 550Z" fill="#d6e1d1" stroke="#d6e1d1"></path><path d="M429 634L424 550L361 580Z" fill="#dde2d2" stroke="#dde2d2"></path><path d="M341 702L429 634L361 580Z" fill="#f4ecea" stroke="#f4ecea"></path><path d="M675 312L602 270L569 399Z" fill="#f5efee" stroke="#f5efee"></path><path d="M487 224L522 152L443 172Z" fill="#f3eae5" stroke="#f3eae5"></path><path d="M262 100L249 154L328 153Z" fill="#d6e1d1" stroke="#d6e1d1"></path><path d="M396 745L459 649L429 634Z" fill="#f3eae5" stroke="#f3eae5"></path><path d="M429 634L459 649L506 595Z" fill="#e9e4d8" stroke="#e9e4d8"></path><path d="M341 702L361 580L290 581Z" fill="#d6e1d1" stroke="#d6e1d1"></path><path d="M595 218L522 152L487 224Z" fill="#d6e1d1" stroke="#d6e1d1"></path><path d="M443 172L479 70L342 143Z" fill="#f3eae5" stroke="#f3eae5"></path><path d="M602 270L595 218L487 224Z" fill="#f5efee" stroke="#f5efee"></path><path d="M156 263L87 315L162 270Z" fill="#f0e8e1" stroke="#f0e8e1"></path><path d="M157 362L60 415L172 485Z" fill="#e9e4d8" stroke="#e9e4d8"></path><path d="M172 485L82 513L175 497Z" fill="#f3eae5" stroke="#f3eae5"></path><path d="M105 239L87 315L156 263Z" fill="#e3e3d5" stroke="#e3e3d5"></path><path d="M163 162L105 239L156 263Z" fill="#f3eae5" stroke="#f3eae5"></path><path d="M185 73L163 162L249 154Z" fill="#f4ecea" stroke="#f4ecea"></path><path d="M249 154L163 162L228 243Z" fill="#f6f2f2" stroke="#f6f2f2"></path><path d="M277 59L262 100L342 143Z" fill="#f6f2f2" stroke="#f6f2f2"></path><path d="M342 143L262 100L328 153Z" fill="#f4ecea" stroke="#f4ecea"></path><path d="M675 485L675 402L603 416Z" fill="#cee0d1" stroke="#cee0d1"></path><path d="M603 416L675 312L569 399Z" fill="#cee0d1" stroke="#cee0d1"></path><path d="M602 270L675 216L595 218Z" fill="#dde2d2" stroke="#dde2d2"></path><path d="M675 485L603 416L563 490Z" fill="#f3eae5" stroke="#f3eae5"></path><path d="M633 559L563 490L506 595Z" fill="#dde2d2" stroke="#dde2d2"></path><path d="M38 410L60 415L87 315Z" fill="#dde2d2" stroke="#dde2d2"></path><path d="M87 315L60 415L157 362Z" fill="#f6f2f2" stroke="#f6f2f2"></path><path d="M101 584L121 605L199 545Z" fill="#cee0d1" stroke="#cee0d1"></path><path d="M60 415L82 513L172 485Z" fill="#f0e8e1" stroke="#f0e8e1"></path><path d="M334 705L190 666L330 713Z" fill="#cee0d1" stroke="#cee0d1"></path><path d="M595 218L582 154L522 152Z" fill="#f6f2f2" stroke="#f6f2f2"></path><path d="M522 152L479 70L443 172Z" fill="#f0e8e1" stroke="#f0e8e1"></path><path d="M675 216L582 154L595 218Z" fill="#dde2d2" stroke="#dde2d2"></path><path d="M675 402L675 312L603 416Z" fill="#dde2d2" stroke="#dde2d2"></path><path d="M597 624L633 559L506 595Z" fill="#f4ecea" stroke="#f4ecea"></path><path d="M290 581L190 666L334 705Z" fill="#d6e1d1" stroke="#d6e1d1"></path><path d="M290 581L258 564L190 666Z" fill="#cee0d1" stroke="#cee0d1"></path><path d="M675 492L675 485L563 490Z" fill="#d6e1d1" stroke="#d6e1d1"></path><path d="M633 559L675 492L563 490Z" fill="#f0e8e1" stroke="#f0e8e1"></path><path d="M190 666L258 564L199 545Z" fill="#f0e8e1" stroke="#f0e8e1"></path><path d="M334 705L330 713L341 702Z" fill="#f5efee" stroke="#f5efee"></path><path d="M453 767L534 706L459 649Z" fill="#f6f2f2" stroke="#f6f2f2"></path><path d="M592 672L597 624L506 595Z" fill="#f6f2f2" stroke="#f6f2f2"></path><path d="M633 559L675 561L675 492Z" fill="#cee0d1" stroke="#cee0d1"></path><path d="M534 706L506 595L459 649Z" fill="#f6f2f2" stroke="#f6f2f2"></path><path d="M101 584L199 545L175 497Z" fill="#dde2d2" stroke="#dde2d2"></path><path d="M60 415L0 478L82 513Z" fill="#f0e8e1" stroke="#f0e8e1"></path><path d="M82 513L101 584L175 497Z" fill="#e9e4d8" stroke="#e9e4d8"></path><path d="M0 413L38 410L0 312Z" fill="#f6f2f2" stroke="#f6f2f2"></path><path d="M167 652L190 666L199 545Z" fill="#f4ecea" stroke="#f4ecea"></path><path d="M65 642L101 584L0 588Z" fill="#f5efee" stroke="#f5efee"></path><path d="M486 66L479 70L522 152Z" fill="#dde2d2" stroke="#dde2d2"></path><path d="M121 605L167 652L199 545Z" fill="#cee0d1" stroke="#cee0d1"></path><path d="M353 41L277 59L342 143Z" fill="#f0e8e1" stroke="#f0e8e1"></path><path d="M262 100L185 73L249 154Z" fill="#f3eae5" stroke="#f3eae5"></path><path d="M578 80L486 66L522 152Z" fill="#e3e3d5" stroke="#e3e3d5"></path><path d="M479 70L353 41L342 143Z" fill="#dde2d2" stroke="#dde2d2"></path><path d="M361 0L353 41L441 0Z" fill="#f5efee" stroke="#f5efee"></path><path d="M675 312L675 216L602 270Z" fill="#f6f2f2" stroke="#f6f2f2"></path><path d="M582 154L578 80L522 152Z" fill="#e3e3d5" stroke="#e3e3d5"></path><path d="M675 639L675 561L633 559Z" fill="#d6e1d1" stroke="#d6e1d1"></path><path d="M396 745L429 634L341 702Z" fill="#f4ecea" stroke="#f4ecea"></path><path d="M597 624L675 639L633 559Z" fill="#d6e1d1" stroke="#d6e1d1"></path><path d="M384 830L396 745L330 713Z" fill="#f5efee" stroke="#f5efee"></path><path d="M330 713L396 745L341 702Z" fill="#e3e3d5" stroke="#e3e3d5"></path><path d="M163 162L109 118L105 239Z" fill="#dde2d2" stroke="#dde2d2"></path><path d="M277 59L185 73L262 100Z" fill="#cee0d1" stroke="#cee0d1"></path><path d="M249 0L185 73L277 59Z" fill="#f0e8e1" stroke="#f0e8e1"></path><path d="M534 706L592 672L506 595Z" fill="#e3e3d5" stroke="#e3e3d5"></path><path d="M675 119L578 80L582 154Z" fill="#f4ecea" stroke="#f4ecea"></path><path d="M441 0L353 41L479 70Z" fill="#f5efee" stroke="#f5efee"></path><path d="M0 312L38 410L87 315Z" fill="#dde2d2" stroke="#dde2d2"></path><path d="M38 410L0 478L60 415Z" fill="#e9e4d8" stroke="#e9e4d8"></path><path d="M0 312L87 315L0 231Z" fill="#d6e1d1" stroke="#d6e1d1"></path><path d="M185 73L109 118L163 162Z" fill="#f5efee" stroke="#f5efee"></path><path d="M0 231L87 315L105 239Z" fill="#f6f2f2" stroke="#f6f2f2"></path><path d="M0 413L0 478L38 410Z" fill="#f6f2f2" stroke="#f6f2f2"></path><path d="M101 584L65 642L121 605Z" fill="#f3eae5" stroke="#f3eae5"></path><path d="M441 0L479 70L486 66Z" fill="#ede6dc" stroke="#ede6dc"></path><path d="M353 41L284 0L277 59Z" fill="#f6f2f2" stroke="#f6f2f2"></path><path d="M433 833L453 767L396 745Z" fill="#ede6dc" stroke="#ede6dc"></path><path d="M396 745L453 767L459 649Z" fill="#cee0d1" stroke="#cee0d1"></path><path d="M675 715L675 639L592 672Z" fill="#f6f2f2" stroke="#f6f2f2"></path><path d="M520 0L441 0L486 66Z" fill="#f0e8e1" stroke="#f0e8e1"></path><path d="M361 0L284 0L353 41Z" fill="#ede6dc" stroke="#ede6dc"></path><path d="M185 73L103 70L109 118Z" fill="#f4ecea" stroke="#f4ecea"></path><path d="M675 715L592 672L625 772Z" fill="#ede6dc" stroke="#ede6dc"></path><path d="M592 672L675 639L597 624Z" fill="#d6e1d1" stroke="#d6e1d1"></path><path d="M114 730L238 786L190 666Z" fill="#f5efee" stroke="#f5efee"></path><path d="M190 666L238 786L330 713Z" fill="#e9e4d8" stroke="#e9e4d8"></path><path d="M121 605L65 642L167 652Z" fill="#f5efee" stroke="#f5efee"></path><path d="M0 563L101 584L82 513Z" fill="#f3eae5" stroke="#f3eae5"></path><path d="M0 133L0 231L105 239Z" fill="#d6e1d1" stroke="#d6e1d1"></path><path d="M284 0L249 0L277 59Z" fill="#f4ecea" stroke="#f4ecea"></path><path d="M675 216L675 119L582 154Z" fill="#ede6dc" stroke="#ede6dc"></path><path d="M578 80L520 0L486 66Z" fill="#e3e3d5" stroke="#e3e3d5"></path><path d="M0 478L0 563L82 513Z" fill="#dde2d2" stroke="#dde2d2"></path><path d="M453 767L511 771L534 706Z" fill="#e9e4d8" stroke="#e9e4d8"></path><path d="M177 0L103 70L185 73Z" fill="#e3e3d5" stroke="#e3e3d5"></path><path d="M109 118L0 133L105 239Z" fill="#f0e8e1" stroke="#f0e8e1"></path><path d="M611 0L520 0L578 80Z" fill="#e9e4d8" stroke="#e9e4d8"></path><path d="M0 563L0 588L101 584Z" fill="#f6f2f2" stroke="#f6f2f2"></path><path d="M114 730L167 652L65 642Z" fill="#f5efee" stroke="#f5efee"></path><path d="M114 730L190 666L167 652Z" fill="#cee0d1" stroke="#cee0d1"></path><path d="M453 767L512 850L511 771Z" fill="#f5efee" stroke="#f5efee"></path><path d="M112 772L114 730L51 796Z" fill="#f6f2f2" stroke="#f6f2f2"></path><path d="M249 0L177 0L185 73Z" fill="#dde2d2" stroke="#dde2d2"></path><path d="M675 119L675 70L578 80Z" fill="#f0e8e1" stroke="#f0e8e1"></path><path d="M324 863L384 830L330 713Z" fill="#f3eae5" stroke="#f3eae5"></path><path d="M0 52L0 133L103 70Z" fill="#ede6dc" stroke="#ede6dc"></path><path d="M103 70L0 133L109 118Z" fill="#f5efee" stroke="#f5efee"></path><path d="M625 772L592 672L534 706Z" fill="#e3e3d5" stroke="#e3e3d5"></path><path d="M625 772L534 706L511 771Z" fill="#e3e3d5" stroke="#e3e3d5"></path><path d="M384 830L433 833L396 745Z" fill="#e9e4d8" stroke="#e9e4d8"></path><path d="M675 70L611 0L578 80Z" fill="#f4ecea" stroke="#f4ecea"></path><path d="M512 850L625 772L511 771Z" fill="#e9e4d8" stroke="#e9e4d8"></path><path d="M0 707L114 730L65 642Z" fill="#e9e4d8" stroke="#e9e4d8"></path><path d="M114 730L112 772L238 786Z" fill="#f4ecea" stroke="#f4ecea"></path><path d="M238 786L324 863L330 713Z" fill="#f5efee" stroke="#f5efee"></path><path d="M177 0L89 0L103 70Z" fill="#dde2d2" stroke="#dde2d2"></path><path d="M261 862L324 863L238 786Z" fill="#f6f2f2" stroke="#f6f2f2"></path><path d="M384 830L414 900L433 833Z" fill="#e3e3d5" stroke="#e3e3d5"></path><path d="M414 900L512 850L433 833Z" fill="#e9e4d8" stroke="#e9e4d8"></path><path d="M433 833L512 850L453 767Z" fill="#e3e3d5" stroke="#e3e3d5"></path><path d="M138 839L261 862L238 786Z" fill="#cee0d1" stroke="#cee0d1"></path><path d="M0 588L0 707L65 642Z" fill="#dde2d2" stroke="#dde2d2"></path><path d="M112 772L138 839L238 786Z" fill="#dde2d2" stroke="#dde2d2"></path><path d="M675 70L675 0L611 0Z" fill="#f3eae5" stroke="#f3eae5"></path><path d="M89 0L0 52L103 70Z" fill="#f3eae5" stroke="#f3eae5"></path><path d="M0 707L0 724L114 730Z" fill="#e3e3d5" stroke="#e3e3d5"></path><path d="M51 796L138 839L112 772Z" fill="#cee0d1" stroke="#cee0d1"></path><path d="M324 863L371 900L384 830Z" fill="#f0e8e1" stroke="#f0e8e1"></path><path d="M273 900L371 900L324 863Z" fill="#ede6dc" stroke="#ede6dc"></path><path d="M273 900L324 863L261 862Z" fill="#f6f2f2" stroke="#f6f2f2"></path><path d="M371 900L414 900L384 830Z" fill="#e3e3d5" stroke="#e3e3d5"></path><path d="M0 724L51 796L114 730Z" fill="#f0e8e1" stroke="#f0e8e1"></path><path d="M232 900L273 900L261 862Z" fill="#f0e8e1" stroke="#f0e8e1"></path><path d="M635 860L675 818L625 772Z" fill="#d6e1d1" stroke="#d6e1d1"></path><path d="M625 772L675 818L675 715Z" fill="#f0e8e1" stroke="#f0e8e1"></path><path d="M635 860L625 772L512 850Z" fill="#f5efee" stroke="#f5efee"></path><path d="M138 839L232 900L261 862Z" fill="#e9e4d8" stroke="#e9e4d8"></path><path d="M112 900L232 900L138 839Z" fill="#f0e8e1" stroke="#f0e8e1"></path><path d="M89 0L0 0L0 52Z" fill="#dde2d2" stroke="#dde2d2"></path><path d="M414 900L524 900L512 850Z" fill="#d6e1d1" stroke="#d6e1d1"></path><path d="M589 900L635 860L512 850Z" fill="#f4ecea" stroke="#f4ecea"></path><path d="M524 900L589 900L512 850Z" fill="#e9e4d8" stroke="#e9e4d8"></path><path d="M107 900L112 900L138 839Z" fill="#e9e4d8" stroke="#e9e4d8"></path><path d="M107 900L138 839L51 796Z" fill="#e9e4d8" stroke="#e9e4d8"></path><path d="M0 862L107 900L51 796Z" fill="#f6f2f2" stroke="#f6f2f2"></path><path d="M589 900L675 900L635 860Z" fill="#f3eae5" stroke="#f3eae5"></path><path d="M635 860L675 900L675 818Z" fill="#e9e4d8" stroke="#e9e4d8"></path><path d="M0 724L0 862L51 796Z" fill="#f4ecea" stroke="#f4ecea"></path><path d="M0 862L0 900L107 900Z" fill="#f5efee" stroke="#f5efee"></path></g></svg>