<svg id="visual" viewBox="0 0 960 540" width="960" height="540" xmlns="http://www.w3.org/2000/svg" xmlns:xlink="http://www.w3.org/1999/xlink" version="1.1"><g stroke-width="1" stroke-linejoin="bevel"><path d="M512.3 217L540.3 243L631 186Z" fill="#cee0d1" stroke="#cee0d1"></path><path d="M540.3 243L676 247L631 186Z" fill="#f0e8e1" stroke="#f0e8e1"></path><path d="M751.7 118L635 80L631 186Z" fill="#f3eae5" stroke="#f3eae5"></path><path d="M631 186L504.3 64L512.3 217Z" fill="#f3eae5" stroke="#f3eae5"></path><path d="M635 80L504.3 64L631 186Z" fill="#f3eae5" stroke="#f3eae5"></path><path d="M504.3 64L418.7 167L512.3 217Z" fill="#cee0d1" stroke="#cee0d1"></path><path d="M512.3 217L438.7 344L540.3 243Z" fill="#e3e3d5" stroke="#e3e3d5"></path><path d="M676 247L734.7 203L631 186Z" fill="#e3e3d5" stroke="#e3e3d5"></path><path d="M418.7 167L401.7 250L512.3 217Z" fill="#e3e3d5" stroke="#e3e3d5"></path><path d="M540.3 243L561.3 367L676 247Z" fill="#f5efee" stroke="#f5efee"></path><path d="M438.7 344L561.3 367L540.3 243Z" fill="#f5efee" stroke="#f5efee"></path><path d="M676 247L756.7 308L734.7 203Z" fill="#dde2d2" stroke="#dde2d2"></path><path d="M504.3 64L424.7 69L418.7 167Z" fill="#d6e1d1" stroke="#d6e1d1"></path><path d="M418.7 167L333 219L401.7 250Z" fill="#d6e1d1" stroke="#d6e1d1"></path><path d="M635 80L557.3 0L504.3 64Z" fill="#dde2d2" stroke="#dde2d2"></path><path d="M504.3 64L444.7 0L424.7 69Z" fill="#ede6dc" stroke="#ede6dc"></path><path d="M635 80L613 0L557.3 0Z" fill="#e3e3d5" stroke="#e3e3d5"></path><path d="M722.7 0L613 0L635 80Z" fill="#f5efee" stroke="#f5efee"></path><path d="M734.7 203L751.7 118L631 186Z" fill="#f4ecea" stroke="#f4ecea"></path><path d="M401.7 250L438.7 344L512.3 217Z" fill="#f6f2f2" stroke="#f6f2f2"></path><path d="M561.3 367L677 361L676 247Z" fill="#f4ecea" stroke="#f4ecea"></path><path d="M557.3 0L444.7 0L504.3 64Z" fill="#e3e3d5" stroke="#e3e3d5"></path><path d="M677 361L756.7 308L676 247Z" fill="#f5efee" stroke="#f5efee"></path><path d="M734.7 203L815.3 177L751.7 118Z" fill="#e9e4d8" stroke="#e9e4d8"></path><path d="M331 56L333 219L418.7 167Z" fill="#cee0d1" stroke="#cee0d1"></path><path d="M401.7 250L330 371L438.7 344Z" fill="#f5efee" stroke="#f5efee"></path><path d="M331 56L418.7 167L424.7 69Z" fill="#f3eae5" stroke="#f3eae5"></path><path d="M438.7 344L510.3 420L561.3 367Z" fill="#f3eae5" stroke="#f3eae5"></path><path d="M561.3 367L674 480L677 361Z" fill="#f0e8e1" stroke="#f0e8e1"></path><path d="M751.7 118L722.7 0L635 80Z" fill="#d6e1d1" stroke="#d6e1d1"></path><path d="M674 480L716.7 381L677 361Z" fill="#f4ecea" stroke="#f4ecea"></path><path d="M677 361L716.7 381L756.7 308Z" fill="#f6f2f2" stroke="#f6f2f2"></path><path d="M333 219L328 246L401.7 250Z" fill="#dde2d2" stroke="#dde2d2"></path><path d="M438.7 344L437.7 454L510.3 420Z" fill="#f0e8e1" stroke="#f0e8e1"></path><path d="M756.7 308L815.3 177L734.7 203Z" fill="#e3e3d5" stroke="#e3e3d5"></path><path d="M751.7 118L884.3 0L722.7 0Z" fill="#f5efee" stroke="#f5efee"></path><path d="M338 0L331 56L424.7 69Z" fill="#d6e1d1" stroke="#d6e1d1"></path><path d="M333 219L199.3 210L328 246Z" fill="#e3e3d5" stroke="#e3e3d5"></path><path d="M444.7 0L338 0L424.7 69Z" fill="#cee0d1" stroke="#cee0d1"></path><path d="M330 371L437.7 454L438.7 344Z" fill="#ede6dc" stroke="#ede6dc"></path><path d="M510.3 420L674 480L561.3 367Z" fill="#d6e1d1" stroke="#d6e1d1"></path><path d="M328 246L330 371L401.7 250Z" fill="#e3e3d5" stroke="#e3e3d5"></path><path d="M638 540L674 480L510.3 420Z" fill="#f5efee" stroke="#f5efee"></path><path d="M872.3 320L892.3 235L756.7 308Z" fill="#f6f2f2" stroke="#f6f2f2"></path><path d="M756.7 308L892.3 235L815.3 177Z" fill="#f4ecea" stroke="#f4ecea"></path><path d="M815.3 177L886.3 104L751.7 118Z" fill="#e9e4d8" stroke="#e9e4d8"></path><path d="M872.3 320L756.7 308L860.3 440Z" fill="#f4ecea" stroke="#f4ecea"></path><path d="M892.3 235L886.3 104L815.3 177Z" fill="#f6f2f2" stroke="#f6f2f2"></path><path d="M674 480L708.7 483L716.7 381Z" fill="#f5efee" stroke="#f5efee"></path><path d="M860.3 440L756.7 308L716.7 381Z" fill="#d6e1d1" stroke="#d6e1d1"></path><path d="M330 371L304 428L437.7 454Z" fill="#e3e3d5" stroke="#e3e3d5"></path><path d="M228.3 363L304 428L330 371Z" fill="#e3e3d5" stroke="#e3e3d5"></path><path d="M228.3 363L330 371L328 246Z" fill="#cee0d1" stroke="#cee0d1"></path><path d="M433.7 540L507.3 540L437.7 454Z" fill="#cee0d1" stroke="#cee0d1"></path><path d="M437.7 454L507.3 540L510.3 420Z" fill="#f5efee" stroke="#f5efee"></path><path d="M674 480L706.7 540L708.7 483Z" fill="#cee0d1" stroke="#cee0d1"></path><path d="M507.3 540L638 540L510.3 420Z" fill="#f0e8e1" stroke="#f0e8e1"></path><path d="M960 94L884.3 0L886.3 104Z" fill="#cee0d1" stroke="#cee0d1"></path><path d="M886.3 104L884.3 0L751.7 118Z" fill="#d6e1d1" stroke="#d6e1d1"></path><path d="M181.3 58L199.3 210L331 56Z" fill="#e9e4d8" stroke="#e9e4d8"></path><path d="M331 56L199.3 210L333 219Z" fill="#f5efee" stroke="#f5efee"></path><path d="M295 540L433.7 540L437.7 454Z" fill="#f6f2f2" stroke="#f6f2f2"></path><path d="M638 540L706.7 540L674 480Z" fill="#f5efee" stroke="#f5efee"></path><path d="M708.7 483L860.3 440L716.7 381Z" fill="#e9e4d8" stroke="#e9e4d8"></path><path d="M200.3 309L228.3 363L328 246Z" fill="#ede6dc" stroke="#ede6dc"></path><path d="M304 428L295 540L437.7 454Z" fill="#e3e3d5" stroke="#e3e3d5"></path><path d="M199.3 210L200.3 309L328 246Z" fill="#f5efee" stroke="#f5efee"></path><path d="M871.3 540L860.3 440L708.7 483Z" fill="#f0e8e1" stroke="#f0e8e1"></path><path d="M960 261L960 210L892.3 235Z" fill="#d6e1d1" stroke="#d6e1d1"></path><path d="M960 261L892.3 235L872.3 320Z" fill="#e3e3d5" stroke="#e3e3d5"></path><path d="M892.3 235L960 210L886.3 104Z" fill="#e3e3d5" stroke="#e3e3d5"></path><path d="M960 392L960 261L872.3 320Z" fill="#f5efee" stroke="#f5efee"></path><path d="M960 210L960 94L886.3 104Z" fill="#f6f2f2" stroke="#f6f2f2"></path><path d="M195.3 0L181.3 58L331 56Z" fill="#ede6dc" stroke="#ede6dc"></path><path d="M199.3 210L110.7 237L200.3 309Z" fill="#f3eae5" stroke="#f3eae5"></path><path d="M338 0L195.3 0L331 56Z" fill="#cee0d1" stroke="#cee0d1"></path><path d="M141.7 464L222.3 447L228.3 363Z" fill="#ede6dc" stroke="#ede6dc"></path><path d="M228.3 363L222.3 447L304 428Z" fill="#f5efee" stroke="#f5efee"></path><path d="M960 94L960 0L884.3 0Z" fill="#e9e4d8" stroke="#e9e4d8"></path><path d="M960 422L960 392L860.3 440Z" fill="#e3e3d5" stroke="#e3e3d5"></path><path d="M860.3 440L960 392L872.3 320Z" fill="#f5efee" stroke="#f5efee"></path><path d="M222.3 447L295 540L304 428Z" fill="#dde2d2" stroke="#dde2d2"></path><path d="M960 540L960 422L860.3 440Z" fill="#cee0d1" stroke="#cee0d1"></path><path d="M71.7 349L141.7 464L228.3 363Z" fill="#e9e4d8" stroke="#e9e4d8"></path><path d="M90.7 170L110.7 237L199.3 210Z" fill="#f6f2f2" stroke="#f6f2f2"></path><path d="M90.7 170L199.3 210L181.3 58Z" fill="#f6f2f2" stroke="#f6f2f2"></path><path d="M706.7 540L871.3 540L708.7 483Z" fill="#dde2d2" stroke="#dde2d2"></path><path d="M92.7 0L107.7 64L181.3 58Z" fill="#dde2d2" stroke="#dde2d2"></path><path d="M107.7 64L90.7 170L181.3 58Z" fill="#d6e1d1" stroke="#d6e1d1"></path><path d="M222.3 447L217.3 540L295 540Z" fill="#f0e8e1" stroke="#f0e8e1"></path><path d="M141.7 464L217.3 540L222.3 447Z" fill="#f5efee" stroke="#f5efee"></path><path d="M71.7 349L200.3 309L110.7 237Z" fill="#e3e3d5" stroke="#e3e3d5"></path><path d="M71.7 349L228.3 363L200.3 309Z" fill="#cee0d1" stroke="#cee0d1"></path><path d="M0 117L0 167L90.7 170Z" fill="#f5efee" stroke="#f5efee"></path><path d="M195.3 0L92.7 0L181.3 58Z" fill="#e3e3d5" stroke="#e3e3d5"></path><path d="M0 271L71.7 349L110.7 237Z" fill="#f3eae5" stroke="#f3eae5"></path><path d="M0 271L110.7 237L90.7 170Z" fill="#ede6dc" stroke="#ede6dc"></path><path d="M871.3 540L960 540L860.3 440Z" fill="#e9e4d8" stroke="#e9e4d8"></path><path d="M141.7 464L135.7 540L217.3 540Z" fill="#f3eae5" stroke="#f3eae5"></path><path d="M0 483L135.7 540L141.7 464Z" fill="#cee0d1" stroke="#cee0d1"></path><path d="M0 117L90.7 170L107.7 64Z" fill="#e3e3d5" stroke="#e3e3d5"></path><path d="M71.7 349L0 483L141.7 464Z" fill="#e9e4d8" stroke="#e9e4d8"></path><path d="M0 0L0 117L107.7 64Z" fill="#e3e3d5" stroke="#e3e3d5"></path><path d="M0 167L0 271L90.7 170Z" fill="#dde2d2" stroke="#dde2d2"></path><path d="M0 271L0 353L71.7 349Z" fill="#ede6dc" stroke="#ede6dc"></path><path d="M92.7 0L0 0L107.7 64Z" fill="#cee0d1" stroke="#cee0d1"></path><path d="M0 353L0 483L71.7 349Z" fill="#f6f2f2" stroke="#f6f2f2"></path><path d="M0 483L0 540L135.7 540Z" fill="#e3e3d5" stroke="#e3e3d5"></path></g></svg>