<svg id="visual" viewBox="0 0 675 900" width="675" height="900" xmlns="http://www.w3.org/2000/svg" xmlns:xlink="http://www.w3.org/1999/xlink" version="1.1"><g stroke-width="1" stroke-linejoin="bevel"><path d="M360 480L294 537L384 520Z" fill="#eae4e4" stroke="#eae4e4"></path><path d="M294 537L350 633L384 520Z" fill="#c7bbbb" stroke="#c7bbbb"></path><path d="M360 480L296 416L294 537Z" fill="#e4dddd" stroke="#e4dddd"></path><path d="M294 537L202 534L276 581Z" fill="#eae4e4" stroke="#eae4e4"></path><path d="M276 581L350 633L294 537Z" fill="#e4dddd" stroke="#e4dddd"></path><path d="M350 633L442 575L384 520Z" fill="#c1b5b5" stroke="#c1b5b5"></path><path d="M384 520L458 509L360 480Z" fill="#f6f2f2" stroke="#f6f2f2"></path><path d="M442 575L458 509L384 520Z" fill="#f6f2f2" stroke="#f6f2f2"></path><path d="M360 480L394 352L296 416Z" fill="#ded6d6" stroke="#ded6d6"></path><path d="M276 581L330 645L350 633Z" fill="#f6f2f2" stroke="#f6f2f2"></path><path d="M296 416L251 419L294 537Z" fill="#ded6d6" stroke="#ded6d6"></path><path d="M251 419L202 534L294 537Z" fill="#f0ebeb" stroke="#f0ebeb"></path><path d="M276 581L199 626L330 645Z" fill="#ccc2c2" stroke="#ccc2c2"></path><path d="M330 645L395 649L350 633Z" fill="#f0ebeb" stroke="#f0ebeb"></path><path d="M350 633L395 649L442 575Z" fill="#ded6d6" stroke="#ded6d6"></path><path d="M296 416L249 396L251 419Z" fill="#eae4e4" stroke="#eae4e4"></path><path d="M150 449L145 522L202 534Z" fill="#ccc2c2" stroke="#ccc2c2"></path><path d="M503 552L484 473L458 509Z" fill="#d8cfcf" stroke="#d8cfcf"></path><path d="M458 509L458 401L360 480Z" fill="#ded6d6" stroke="#ded6d6"></path><path d="M296 416L316 339L249 396Z" fill="#eae4e4" stroke="#eae4e4"></path><path d="M496 591L503 552L442 575Z" fill="#f0ebeb" stroke="#f0ebeb"></path><path d="M442 575L503 552L458 509Z" fill="#ded6d6" stroke="#ded6d6"></path><path d="M503 552L497 464L484 473Z" fill="#bbaeae" stroke="#bbaeae"></path><path d="M484 473L458 401L458 509Z" fill="#e4dddd" stroke="#e4dddd"></path><path d="M497 464L458 401L484 473Z" fill="#d8cfcf" stroke="#d8cfcf"></path><path d="M395 649L496 591L442 575Z" fill="#c7bbbb" stroke="#c7bbbb"></path><path d="M202 534L199 626L276 581Z" fill="#f0ebeb" stroke="#f0ebeb"></path><path d="M458 401L394 352L360 480Z" fill="#eae4e4" stroke="#eae4e4"></path><path d="M145 522L174 597L202 534Z" fill="#e4dddd" stroke="#e4dddd"></path><path d="M202 534L174 597L199 626Z" fill="#c1b5b5" stroke="#c1b5b5"></path><path d="M394 352L316 339L296 416Z" fill="#f0ebeb" stroke="#f0ebeb"></path><path d="M150 449L202 534L251 419Z" fill="#bbaeae" stroke="#bbaeae"></path><path d="M170 393L251 419L249 396Z" fill="#d8cfcf" stroke="#d8cfcf"></path><path d="M170 393L150 449L251 419Z" fill="#eae4e4" stroke="#eae4e4"></path><path d="M386 279L299 317L316 339Z" fill="#f0ebeb" stroke="#f0ebeb"></path><path d="M316 339L299 317L249 396Z" fill="#d2c8c8" stroke="#d2c8c8"></path><path d="M237 281L170 393L249 396Z" fill="#bbaeae" stroke="#bbaeae"></path><path d="M330 645L353 731L395 649Z" fill="#e4dddd" stroke="#e4dddd"></path><path d="M395 649L488 700L496 591Z" fill="#f0ebeb" stroke="#f0ebeb"></path><path d="M207 711L353 731L330 645Z" fill="#eae4e4" stroke="#eae4e4"></path><path d="M353 731L460 714L395 649Z" fill="#d8cfcf" stroke="#d8cfcf"></path><path d="M174 597L164 672L199 626Z" fill="#bbaeae" stroke="#bbaeae"></path><path d="M199 626L207 711L330 645Z" fill="#f6f2f2" stroke="#f6f2f2"></path><path d="M92 653L164 672L174 597Z" fill="#f0ebeb" stroke="#f0ebeb"></path><path d="M164 672L207 711L199 626Z" fill="#ccc2c2" stroke="#ccc2c2"></path><path d="M83 393L109 480L150 449Z" fill="#e4dddd" stroke="#e4dddd"></path><path d="M150 449L109 480L145 522Z" fill="#d8cfcf" stroke="#d8cfcf"></path><path d="M145 522L78 566L174 597Z" fill="#d2c8c8" stroke="#d2c8c8"></path><path d="M460 714L488 700L395 649Z" fill="#e4dddd" stroke="#e4dddd"></path><path d="M496 591L606 551L503 552Z" fill="#f6f2f2" stroke="#f6f2f2"></path><path d="M559 351L460 313L458 401Z" fill="#e4dddd" stroke="#e4dddd"></path><path d="M458 401L460 313L394 352Z" fill="#e4dddd" stroke="#e4dddd"></path><path d="M394 352L386 279L316 339Z" fill="#ded6d6" stroke="#ded6d6"></path><path d="M460 313L386 279L394 352Z" fill="#c7bbbb" stroke="#c7bbbb"></path><path d="M451 785L479 730L460 714Z" fill="#eae4e4" stroke="#eae4e4"></path><path d="M460 714L479 730L488 700Z" fill="#c1b5b5" stroke="#c1b5b5"></path><path d="M333 218L237 281L299 317Z" fill="#d2c8c8" stroke="#d2c8c8"></path><path d="M299 317L237 281L249 396Z" fill="#e4dddd" stroke="#e4dddd"></path><path d="M170 393L83 393L150 449Z" fill="#f0ebeb" stroke="#f0ebeb"></path><path d="M68 545L78 566L145 522Z" fill="#f0ebeb" stroke="#f0ebeb"></path><path d="M207 711L286 781L353 731Z" fill="#ded6d6" stroke="#ded6d6"></path><path d="M353 731L413 791L460 714Z" fill="#e4dddd" stroke="#e4dddd"></path><path d="M569 661L496 591L488 700Z" fill="#d2c8c8" stroke="#d2c8c8"></path><path d="M569 661L606 551L496 591Z" fill="#f6f2f2" stroke="#f6f2f2"></path><path d="M503 552L606 551L497 464Z" fill="#eae4e4" stroke="#eae4e4"></path><path d="M497 464L559 351L458 401Z" fill="#bbaeae" stroke="#bbaeae"></path><path d="M109 480L68 545L145 522Z" fill="#c1b5b5" stroke="#c1b5b5"></path><path d="M569 778L569 661L488 700Z" fill="#e4dddd" stroke="#e4dddd"></path><path d="M207 711L260 784L286 781Z" fill="#c7bbbb" stroke="#c7bbbb"></path><path d="M167 798L260 784L207 711Z" fill="#d8cfcf" stroke="#d8cfcf"></path><path d="M78 566L92 653L174 597Z" fill="#e4dddd" stroke="#e4dddd"></path><path d="M164 672L128 715L207 711Z" fill="#bbaeae" stroke="#bbaeae"></path><path d="M0 579L92 653L78 566Z" fill="#eae4e4" stroke="#eae4e4"></path><path d="M606 435L559 351L497 464Z" fill="#c1b5b5" stroke="#c1b5b5"></path><path d="M460 313L456 252L386 279Z" fill="#bbaeae" stroke="#bbaeae"></path><path d="M309 805L353 731L286 781Z" fill="#d2c8c8" stroke="#d2c8c8"></path><path d="M309 805L413 791L353 731Z" fill="#eae4e4" stroke="#eae4e4"></path><path d="M479 730L522 783L488 700Z" fill="#d2c8c8" stroke="#d2c8c8"></path><path d="M606 551L606 435L497 464Z" fill="#c7bbbb" stroke="#c7bbbb"></path><path d="M144 309L83 393L170 393Z" fill="#bbaeae" stroke="#bbaeae"></path><path d="M0 484L0 524L68 545Z" fill="#eae4e4" stroke="#eae4e4"></path><path d="M260 784L309 805L286 781Z" fill="#f6f2f2" stroke="#f6f2f2"></path><path d="M92 653L128 715L164 672Z" fill="#c1b5b5" stroke="#c1b5b5"></path><path d="M237 281L144 309L170 393Z" fill="#bbaeae" stroke="#bbaeae"></path><path d="M413 791L451 785L460 714Z" fill="#eae4e4" stroke="#eae4e4"></path><path d="M515 272L456 252L460 313Z" fill="#bbaeae" stroke="#bbaeae"></path><path d="M386 279L333 218L299 317Z" fill="#e4dddd" stroke="#e4dddd"></path><path d="M409 194L333 218L386 279Z" fill="#e4dddd" stroke="#e4dddd"></path><path d="M110 208L98 312L144 309Z" fill="#f6f2f2" stroke="#f6f2f2"></path><path d="M562 306L515 272L559 351Z" fill="#eae4e4" stroke="#eae4e4"></path><path d="M559 351L515 272L460 313Z" fill="#ded6d6" stroke="#ded6d6"></path><path d="M633 368L562 306L559 351Z" fill="#c7bbbb" stroke="#c7bbbb"></path><path d="M201 224L144 309L237 281Z" fill="#eae4e4" stroke="#eae4e4"></path><path d="M144 309L98 312L83 393Z" fill="#f6f2f2" stroke="#f6f2f2"></path><path d="M543 804L451 785L465 900Z" fill="#f0ebeb" stroke="#f0ebeb"></path><path d="M543 804L522 783L451 785Z" fill="#d2c8c8" stroke="#d2c8c8"></path><path d="M451 785L522 783L479 730Z" fill="#ded6d6" stroke="#ded6d6"></path><path d="M569 661L638 638L606 551Z" fill="#e4dddd" stroke="#e4dddd"></path><path d="M675 416L633 368L606 435Z" fill="#ccc2c2" stroke="#ccc2c2"></path><path d="M675 678L638 638L569 661Z" fill="#ded6d6" stroke="#ded6d6"></path><path d="M111 828L167 798L128 715Z" fill="#ccc2c2" stroke="#ccc2c2"></path><path d="M128 715L167 798L207 711Z" fill="#ded6d6" stroke="#ded6d6"></path><path d="M260 784L237 855L309 805Z" fill="#eae4e4" stroke="#eae4e4"></path><path d="M321 184L201 224L237 281Z" fill="#d2c8c8" stroke="#d2c8c8"></path><path d="M606 435L633 368L559 351Z" fill="#c7bbbb" stroke="#c7bbbb"></path><path d="M675 488L606 435L606 551Z" fill="#c1b5b5" stroke="#c1b5b5"></path><path d="M442 161L409 194L456 252Z" fill="#e4dddd" stroke="#e4dddd"></path><path d="M456 252L409 194L386 279Z" fill="#ded6d6" stroke="#ded6d6"></path><path d="M333 218L321 184L237 281Z" fill="#c7bbbb" stroke="#c7bbbb"></path><path d="M442 161L456 252L515 272Z" fill="#f6f2f2" stroke="#f6f2f2"></path><path d="M409 194L321 184L333 218Z" fill="#f6f2f2" stroke="#f6f2f2"></path><path d="M0 484L68 545L109 480Z" fill="#c1b5b5" stroke="#c1b5b5"></path><path d="M68 545L0 579L78 566Z" fill="#ded6d6" stroke="#ded6d6"></path><path d="M92 653L49 752L128 715Z" fill="#ded6d6" stroke="#ded6d6"></path><path d="M0 484L109 480L83 393Z" fill="#d2c8c8" stroke="#d2c8c8"></path><path d="M611 249L554 261L562 306Z" fill="#d8cfcf" stroke="#d8cfcf"></path><path d="M562 306L554 261L515 272Z" fill="#c7bbbb" stroke="#c7bbbb"></path><path d="M675 619L675 488L606 551Z" fill="#f0ebeb" stroke="#f0ebeb"></path><path d="M0 397L0 484L83 393Z" fill="#e4dddd" stroke="#e4dddd"></path><path d="M0 524L0 579L68 545Z" fill="#ded6d6" stroke="#ded6d6"></path><path d="M522 783L569 778L488 700Z" fill="#ded6d6" stroke="#ded6d6"></path><path d="M167 798L237 855L260 784Z" fill="#e4dddd" stroke="#e4dddd"></path><path d="M309 805L414 900L413 791Z" fill="#ccc2c2" stroke="#ccc2c2"></path><path d="M522 783L543 804L569 778Z" fill="#f6f2f2" stroke="#f6f2f2"></path><path d="M465 900L451 785L413 791Z" fill="#f6f2f2" stroke="#f6f2f2"></path><path d="M675 678L675 619L638 638Z" fill="#bbaeae" stroke="#bbaeae"></path><path d="M638 638L675 619L606 551Z" fill="#c7bbbb" stroke="#c7bbbb"></path><path d="M675 488L675 416L606 435Z" fill="#c1b5b5" stroke="#c1b5b5"></path><path d="M633 368L675 338L562 306Z" fill="#eae4e4" stroke="#eae4e4"></path><path d="M0 310L0 397L83 393Z" fill="#d2c8c8" stroke="#d2c8c8"></path><path d="M0 676L49 752L92 653Z" fill="#ccc2c2" stroke="#ccc2c2"></path><path d="M167 798L121 900L237 855Z" fill="#ded6d6" stroke="#ded6d6"></path><path d="M0 579L0 676L92 653Z" fill="#ccc2c2" stroke="#ccc2c2"></path><path d="M569 778L675 678L569 661Z" fill="#ccc2c2" stroke="#ccc2c2"></path><path d="M675 771L675 678L569 778Z" fill="#c7bbbb" stroke="#c7bbbb"></path><path d="M534 121L442 161L515 272Z" fill="#ded6d6" stroke="#ded6d6"></path><path d="M409 194L394 143L321 184Z" fill="#d2c8c8" stroke="#d2c8c8"></path><path d="M675 416L675 355L633 368Z" fill="#c1b5b5" stroke="#c1b5b5"></path><path d="M554 261L534 121L515 272Z" fill="#bbaeae" stroke="#bbaeae"></path><path d="M201 224L145 194L144 309Z" fill="#d2c8c8" stroke="#d2c8c8"></path><path d="M98 312L0 310L83 393Z" fill="#d2c8c8" stroke="#d2c8c8"></path><path d="M232 118L145 194L201 224Z" fill="#bbaeae" stroke="#bbaeae"></path><path d="M232 118L201 224L321 184Z" fill="#c7bbbb" stroke="#c7bbbb"></path><path d="M234 900L301 900L237 855Z" fill="#e4dddd" stroke="#e4dddd"></path><path d="M237 855L301 900L309 805Z" fill="#ded6d6" stroke="#ded6d6"></path><path d="M49 752L111 828L128 715Z" fill="#ded6d6" stroke="#ded6d6"></path><path d="M442 161L394 143L409 194Z" fill="#d8cfcf" stroke="#d8cfcf"></path><path d="M675 355L675 338L633 368Z" fill="#c7bbbb" stroke="#c7bbbb"></path><path d="M675 338L611 249L562 306Z" fill="#ded6d6" stroke="#ded6d6"></path><path d="M145 194L110 208L144 309Z" fill="#c7bbbb" stroke="#c7bbbb"></path><path d="M301 900L414 900L309 805Z" fill="#eae4e4" stroke="#eae4e4"></path><path d="M121 900L234 900L237 855Z" fill="#e4dddd" stroke="#e4dddd"></path><path d="M0 221L0 310L98 312Z" fill="#c7bbbb" stroke="#c7bbbb"></path><path d="M414 900L465 900L413 791Z" fill="#d8cfcf" stroke="#d8cfcf"></path><path d="M675 796L675 771L569 778Z" fill="#f0ebeb" stroke="#f0ebeb"></path><path d="M49 752L0 807L111 828Z" fill="#eae4e4" stroke="#eae4e4"></path><path d="M0 676L0 758L49 752Z" fill="#d8cfcf" stroke="#d8cfcf"></path><path d="M255 77L232 118L321 184Z" fill="#ccc2c2" stroke="#ccc2c2"></path><path d="M145 194L111 167L110 208Z" fill="#eae4e4" stroke="#eae4e4"></path><path d="M111 123L111 167L145 194Z" fill="#ded6d6" stroke="#ded6d6"></path><path d="M110 208L0 221L98 312Z" fill="#eae4e4" stroke="#eae4e4"></path><path d="M675 796L569 778L629 855Z" fill="#e4dddd" stroke="#e4dddd"></path><path d="M442 161L433 110L394 143Z" fill="#e4dddd" stroke="#e4dddd"></path><path d="M394 143L334 55L321 184Z" fill="#f6f2f2" stroke="#f6f2f2"></path><path d="M534 121L433 110L442 161Z" fill="#e4dddd" stroke="#e4dddd"></path><path d="M433 110L396 102L394 143Z" fill="#bbaeae" stroke="#bbaeae"></path><path d="M629 855L569 778L543 804Z" fill="#c7bbbb" stroke="#c7bbbb"></path><path d="M72 900L121 900L111 828Z" fill="#d8cfcf" stroke="#d8cfcf"></path><path d="M111 828L121 900L167 798Z" fill="#ded6d6" stroke="#ded6d6"></path><path d="M465 900L563 900L543 804Z" fill="#ded6d6" stroke="#ded6d6"></path><path d="M0 758L0 807L49 752Z" fill="#c1b5b5" stroke="#c1b5b5"></path><path d="M563 900L629 855L543 804Z" fill="#d8cfcf" stroke="#d8cfcf"></path><path d="M611 249L534 121L554 261Z" fill="#d8cfcf" stroke="#d8cfcf"></path><path d="M313 0L334 55L394 0Z" fill="#ccc2c2" stroke="#ccc2c2"></path><path d="M621 119L534 121L611 249Z" fill="#e4dddd" stroke="#e4dddd"></path><path d="M675 338L675 225L611 249Z" fill="#e4dddd" stroke="#e4dddd"></path><path d="M334 55L255 77L321 184Z" fill="#f0ebeb" stroke="#f0ebeb"></path><path d="M232 118L111 123L145 194Z" fill="#d8cfcf" stroke="#d8cfcf"></path><path d="M334 55L394 143L396 102Z" fill="#f6f2f2" stroke="#f6f2f2"></path><path d="M0 170L110 208L111 167Z" fill="#e4dddd" stroke="#e4dddd"></path><path d="M0 170L0 221L110 208Z" fill="#c7bbbb" stroke="#c7bbbb"></path><path d="M563 900L591 900L629 855Z" fill="#d2c8c8" stroke="#d2c8c8"></path><path d="M144 74L111 123L232 118Z" fill="#e4dddd" stroke="#e4dddd"></path><path d="M0 807L72 900L111 828Z" fill="#d2c8c8" stroke="#d2c8c8"></path><path d="M334 55L396 102L394 0Z" fill="#ccc2c2" stroke="#ccc2c2"></path><path d="M111 123L0 170L111 167Z" fill="#e4dddd" stroke="#e4dddd"></path><path d="M257 0L144 74L255 77Z" fill="#c1b5b5" stroke="#c1b5b5"></path><path d="M255 77L144 74L232 118Z" fill="#f0ebeb" stroke="#f0ebeb"></path><path d="M111 123L35 81L0 170Z" fill="#d2c8c8" stroke="#d2c8c8"></path><path d="M621 119L538 73L534 121Z" fill="#d2c8c8" stroke="#d2c8c8"></path><path d="M534 121L538 73L433 110Z" fill="#d8cfcf" stroke="#d8cfcf"></path><path d="M675 225L621 119L611 249Z" fill="#ded6d6" stroke="#ded6d6"></path><path d="M591 900L675 900L629 855Z" fill="#d2c8c8" stroke="#d2c8c8"></path><path d="M629 855L675 900L675 796Z" fill="#d8cfcf" stroke="#d8cfcf"></path><path d="M0 807L0 900L72 900Z" fill="#bbaeae" stroke="#bbaeae"></path><path d="M675 225L675 127L621 119Z" fill="#eae4e4" stroke="#eae4e4"></path><path d="M621 119L629 79L538 73Z" fill="#ded6d6" stroke="#ded6d6"></path><path d="M394 0L396 102L448 0Z" fill="#d2c8c8" stroke="#d2c8c8"></path><path d="M334 55L313 0L255 77Z" fill="#ccc2c2" stroke="#ccc2c2"></path><path d="M448 0L433 110L538 73Z" fill="#bbaeae" stroke="#bbaeae"></path><path d="M448 0L396 102L433 110Z" fill="#d2c8c8" stroke="#d2c8c8"></path><path d="M313 0L257 0L255 77Z" fill="#c7bbbb" stroke="#c7bbbb"></path><path d="M675 127L629 79L621 119Z" fill="#ccc2c2" stroke="#ccc2c2"></path><path d="M513 0L448 0L538 73Z" fill="#e4dddd" stroke="#e4dddd"></path><path d="M126 0L35 81L144 74Z" fill="#c7bbbb" stroke="#c7bbbb"></path><path d="M144 74L35 81L111 123Z" fill="#d2c8c8" stroke="#d2c8c8"></path><path d="M619 0L513 0L538 73Z" fill="#c1b5b5" stroke="#c1b5b5"></path><path d="M257 0L126 0L144 74Z" fill="#d8cfcf" stroke="#d8cfcf"></path><path d="M675 127L675 71L629 79Z" fill="#c7bbbb" stroke="#c7bbbb"></path><path d="M629 79L619 0L538 73Z" fill="#d8cfcf" stroke="#d8cfcf"></path><path d="M37 0L0 62L35 81Z" fill="#f6f2f2" stroke="#f6f2f2"></path><path d="M35 81L0 62L0 170Z" fill="#f0ebeb" stroke="#f0ebeb"></path><path d="M675 71L619 0L629 79Z" fill="#f6f2f2" stroke="#f6f2f2"></path><path d="M126 0L37 0L35 81Z" fill="#e4dddd" stroke="#e4dddd"></path><path d="M675 71L675 0L619 0Z" fill="#d2c8c8" stroke="#d2c8c8"></path><path d="M37 0L0 0L0 62Z" fill="#d8cfcf" stroke="#d8cfcf"></path></g></svg>