<svg id="visual" viewBox="0 0 675 900" width="675" height="900" xmlns="http://www.w3.org/2000/svg" xmlns:xlink="http://www.w3.org/1999/xlink" version="1.1"><path d="M580 900L580 881.3C580 862.7 580 825.3 572 787.8C564 750.3 548 712.7 536.7 675.2C525.3 637.7 518.7 600.3 523.2 562.8C527.7 525.3 543.3 487.7 544.5 450.2C545.7 412.7 532.3 375.3 523.3 337.8C514.3 300.3 509.7 262.7 514.2 225.2C518.7 187.7 532.3 150.3 533.5 112.8C534.7 75.3 523.3 37.7 517.7 18.8L512 0L675 0L675 18.8C675 37.7 675 75.3 675 112.8C675 150.3 675 187.7 675 225.2C675 262.7 675 300.3 675 337.8C675 375.3 675 412.7 675 450.2C675 487.7 675 525.3 675 562.8C675 600.3 675 637.7 675 675.2C675 712.7 675 750.3 675 787.8C675 825.3 675 862.7 675 881.3L675 900Z" fill="#817d75"></path><path d="M505 900L504 881.3C503 862.7 501 825.3 496.5 787.8C492 750.3 485 712.7 478.2 675.2C471.3 637.7 464.7 600.3 467 562.8C469.3 525.3 480.7 487.7 482.8 450.2C485 412.7 478 375.3 471.2 337.8C464.3 300.3 457.7 262.7 457.7 225.2C457.7 187.7 464.3 150.3 462.2 112.8C460 75.3 449 37.7 443.5 18.8L438 0L513 0L518.7 18.8C524.3 37.7 535.7 75.3 534.5 112.8C533.3 150.3 519.7 187.7 515.2 225.2C510.7 262.7 515.3 300.3 524.3 337.8C533.3 375.3 546.7 412.7 545.5 450.2C544.3 487.7 528.7 525.3 524.2 562.8C519.7 600.3 526.3 637.7 537.7 675.2C549 712.7 565 750.3 573 787.8C581 825.3 581 862.7 581 881.3L581 900Z" fill="#9b938c"></path><path d="M465 900L462.7 881.3C460.3 862.7 455.7 825.3 450 787.8C444.3 750.3 437.7 712.7 432.2 675.2C426.7 637.7 422.3 600.3 426.8 562.8C431.3 525.3 444.7 487.7 445.7 450.2C446.7 412.7 435.3 375.3 427.5 337.8C419.7 300.3 415.3 262.7 415.3 225.2C415.3 187.7 419.7 150.3 418.5 112.8C417.3 75.3 410.7 37.7 407.3 18.8L404 0L439 0L444.5 18.8C450 37.7 461 75.3 463.2 112.8C465.3 150.3 458.7 187.7 458.7 225.2C458.7 262.7 465.3 300.3 472.2 337.8C479 375.3 486 412.7 483.8 450.2C481.7 487.7 470.3 525.3 468 562.8C465.7 600.3 472.3 637.7 479.2 675.2C486 712.7 493 750.3 497.5 787.8C502 825.3 504 862.7 505 881.3L506 900Z" fill="#b4aaa5"></path><path d="M283 900L281.8 881.3C280.7 862.7 278.3 825.3 274.8 787.8C271.3 750.3 266.7 712.7 263.3 675.2C260 637.7 258 600.3 258 562.8C258 525.3 260 487.7 263.3 450.2C266.7 412.7 271.3 375.3 275.8 337.8C280.3 300.3 284.7 262.7 290.3 225.2C296 187.7 303 150.3 303 112.8C303 75.3 296 37.7 292.5 18.8L289 0L405 0L408.3 18.8C411.7 37.7 418.3 75.3 419.5 112.8C420.7 150.3 416.3 187.7 416.3 225.2C416.3 262.7 420.7 300.3 428.5 337.8C436.3 375.3 447.7 412.7 446.7 450.2C445.7 487.7 432.3 525.3 427.8 562.8C423.3 600.3 427.7 637.7 433.2 675.2C438.7 712.7 445.3 750.3 451 787.8C456.7 825.3 461.3 862.7 463.7 881.3L466 900Z" fill="#cdc1bf"></path><path d="M202 900L203 881.3C204 862.7 206 825.3 206 787.8C206 750.3 204 712.7 200.7 675.2C197.3 637.7 192.7 600.3 192.7 562.8C192.7 525.3 197.3 487.7 197.3 450.2C197.3 412.7 192.7 375.3 194.8 337.8C197 300.3 206 262.7 209.3 225.2C212.7 187.7 210.3 150.3 208.2 112.8C206 75.3 204 37.7 203 18.8L202 0L290 0L293.5 18.8C297 37.7 304 75.3 304 112.8C304 150.3 297 187.7 291.3 225.2C285.7 262.7 281.3 300.3 276.8 337.8C272.3 375.3 267.7 412.7 264.3 450.2C261 487.7 259 525.3 259 562.8C259 600.3 261 637.7 264.3 675.2C267.7 712.7 272.3 750.3 275.8 787.8C279.3 825.3 281.7 862.7 282.8 881.3L284 900Z" fill="#dbcfcf"></path><path d="M175 900L173.8 881.3C172.7 862.7 170.3 825.3 166.8 787.8C163.3 750.3 158.7 712.7 155.2 675.2C151.7 637.7 149.3 600.3 152.8 562.8C156.3 525.3 165.7 487.7 166.8 450.2C168 412.7 161 375.3 161 337.8C161 300.3 168 262.7 170.3 225.2C172.7 187.7 170.3 150.3 170.3 112.8C170.3 75.3 172.7 37.7 173.8 18.8L175 0L203 0L204 18.8C205 37.7 207 75.3 209.2 112.8C211.3 150.3 213.7 187.7 210.3 225.2C207 262.7 198 300.3 195.8 337.8C193.7 375.3 198.3 412.7 198.3 450.2C198.3 487.7 193.7 525.3 193.7 562.8C193.7 600.3 198.3 637.7 201.7 675.2C205 712.7 207 750.3 207 787.8C207 825.3 205 862.7 204 881.3L203 900Z" fill="#dbcfcf"></path><path d="M141 900L141 881.3C141 862.7 141 825.3 138.7 787.8C136.3 750.3 131.7 712.7 127.2 675.2C122.7 637.7 118.3 600.3 120.7 562.8C123 525.3 132 487.7 135.3 450.2C138.7 412.7 136.3 375.3 136.3 337.8C136.3 300.3 138.7 262.7 138.7 225.2C138.7 187.7 136.3 150.3 135.2 112.8C134 75.3 134 37.7 134 18.8L134 0L176 0L174.8 18.8C173.7 37.7 171.3 75.3 171.3 112.8C171.3 150.3 173.7 187.7 171.3 225.2C169 262.7 162 300.3 162 337.8C162 375.3 169 412.7 167.8 450.2C166.7 487.7 157.3 525.3 153.8 562.8C150.3 600.3 152.7 637.7 156.2 675.2C159.7 712.7 164.3 750.3 167.8 787.8C171.3 825.3 173.7 862.7 174.8 881.3L176 900Z" fill="#cdc1bf"></path><path d="M66 900L70.7 881.3C75.3 862.7 84.7 825.3 85.8 787.8C87 750.3 80 712.7 76.5 675.2C73 637.7 73 600.3 76.5 562.8C80 525.3 87 487.7 85.8 450.2C84.7 412.7 75.3 375.3 73 337.8C70.7 300.3 75.3 262.7 77.7 225.2C80 187.7 80 150.3 78.8 112.8C77.7 75.3 75.3 37.7 74.2 18.8L73 0L135 0L135 18.8C135 37.7 135 75.3 136.2 112.8C137.3 150.3 139.7 187.7 139.7 225.2C139.7 262.7 137.3 300.3 137.3 337.8C137.3 375.3 139.7 412.7 136.3 450.2C133 487.7 124 525.3 121.7 562.8C119.3 600.3 123.7 637.7 128.2 675.2C132.7 712.7 137.3 750.3 139.7 787.8C142 825.3 142 862.7 142 881.3L142 900Z" fill="#b4aaa5"></path><path d="M26 900L28.3 881.3C30.7 862.7 35.3 825.3 36.5 787.8C37.7 750.3 35.3 712.7 35.3 675.2C35.3 637.7 37.7 600.3 38.8 562.8C40 525.3 40 487.7 38.8 450.2C37.7 412.7 35.3 375.3 35.3 337.8C35.3 300.3 37.7 262.7 36.5 225.2C35.3 187.7 30.7 150.3 28.3 112.8C26 75.3 26 37.7 26 18.8L26 0L74 0L75.2 18.8C76.3 37.7 78.7 75.3 79.8 112.8C81 150.3 81 187.7 78.7 225.2C76.3 262.7 71.7 300.3 74 337.8C76.3 375.3 85.7 412.7 86.8 450.2C88 487.7 81 525.3 77.5 562.8C74 600.3 74 637.7 77.5 675.2C81 712.7 88 750.3 86.8 787.8C85.7 825.3 76.3 862.7 71.7 881.3L67 900Z" fill="#9b938c"></path><path d="M0 900L0 881.3C0 862.7 0 825.3 0 787.8C0 750.3 0 712.7 0 675.2C0 637.7 0 600.3 0 562.8C0 525.3 0 487.7 0 450.2C0 412.7 0 375.3 0 337.8C0 300.3 0 262.7 0 225.2C0 187.7 0 150.3 0 112.8C0 75.3 0 37.7 0 18.8L0 0L27 0L27 18.8C27 37.7 27 75.3 29.3 112.8C31.7 150.3 36.3 187.7 37.5 225.2C38.7 262.7 36.3 300.3 36.3 337.8C36.3 375.3 38.7 412.7 39.8 450.2C41 487.7 41 525.3 39.8 562.8C38.7 600.3 36.3 637.7 36.3 675.2C36.3 712.7 38.7 750.3 37.5 787.8C36.3 825.3 31.7 862.7 29.3 881.3L27 900Z" fill="#817d75"></path></svg>