<svg id="visual" viewBox="0 0 960 540" width="960" height="540" xmlns="http://www.w3.org/2000/svg" xmlns:xlink="http://www.w3.org/1999/xlink" version="1.1"><path d="M0 33L20 33C40 33 80 33 120 34.8C160 36.7 200 40.3 240 40.3C280 40.3 320 36.7 360 34.8C400 33 440 33 480 34C520 35 560 37 600 36.2C640 35.3 680 31.7 720 33.5C760 35.3 800 42.7 840 43.5C880 44.3 920 38.7 940 35.8L960 33L960 0L940 0C920 0 880 0 840 0C800 0 760 0 720 0C680 0 640 0 600 0C560 0 520 0 480 0C440 0 400 0 360 0C320 0 280 0 240 0C200 0 160 0 120 0C80 0 40 0 20 0L0 0Z" fill="#a5a19b"></path><path d="M0 60L20 59.2C40 58.3 80 56.7 120 58.5C160 60.3 200 65.7 240 65.7C280 65.7 320 60.3 360 58.5C400 56.7 440 58.3 480 60.2C520 62 560 64 600 62.3C640 60.7 680 55.3 720 57.2C760 59 800 68 840 71.5C880 75 920 73 940 72L960 71L960 31L940 33.8C920 36.7 880 42.3 840 41.5C800 40.7 760 33.3 720 31.5C680 29.7 640 33.3 600 34.2C560 35 520 33 480 32C440 31 400 31 360 32.8C320 34.7 280 38.3 240 38.3C200 38.3 160 34.7 120 32.8C80 31 40 31 20 31L0 31Z" fill="#b1aea9"></path><path d="M0 93L20 90.3C40 87.7 80 82.3 120 82.3C160 82.3 200 87.7 240 87.7C280 87.7 320 82.3 360 80.5C400 78.7 440 80.3 480 83.8C520 87.3 560 92.7 600 92.7C640 92.7 680 87.3 720 89.2C760 91 800 100 840 101.8C880 103.7 920 98.3 940 95.7L960 93L960 69L940 70C920 71 880 73 840 69.5C800 66 760 57 720 55.2C680 53.3 640 58.7 600 60.3C560 62 520 60 480 58.2C440 56.3 400 54.7 360 56.5C320 58.3 280 63.7 240 63.7C200 63.7 160 58.3 120 56.5C80 54.7 40 56.3 20 57.2L0 58Z" fill="#bdbcb8"></path><path d="M0 185L20 179.5C40 174 80 163 120 161.2C160 159.3 200 166.7 240 163.2C280 159.7 320 145.3 360 144.3C400 143.3 440 155.7 480 158.3C520 161 560 154 600 150.5C640 147 680 147 720 152.3C760 157.7 800 168.3 840 169.2C880 170 920 161 940 156.5L960 152L960 91L940 93.7C920 96.3 880 101.7 840 99.8C800 98 760 89 720 87.2C680 85.3 640 90.7 600 90.7C560 90.7 520 85.3 480 81.8C440 78.3 400 76.7 360 78.5C320 80.3 280 85.7 240 85.7C200 85.7 160 80.3 120 80.3C80 80.3 40 85.7 20 88.3L0 91Z" fill="#cacac7"></path><path d="M0 201L20 196.5C40 192 80 183 120 183C160 183 200 192 240 190.2C280 188.3 320 175.7 360 173.8C400 172 440 181 480 181.8C520 182.7 560 175.3 600 170.8C640 166.3 680 164.7 720 170.2C760 175.7 800 188.3 840 190.2C880 192 920 183 940 178.5L960 174L960 150L940 154.5C920 159 880 168 840 167.2C800 166.3 760 155.7 720 150.3C680 145 640 145 600 148.5C560 152 520 159 480 156.3C440 153.7 400 141.3 360 142.3C320 143.3 280 157.7 240 161.2C200 164.7 160 157.3 120 159.2C80 161 40 172 20 177.5L0 183Z" fill="#d2d2d0"></path><path d="M0 239L20 234.5C40 230 80 221 120 220C160 219 200 226 240 223.2C280 220.3 320 207.7 360 205C400 202.3 440 209.7 480 212.5C520 215.3 560 213.7 600 211.8C640 210 680 208 720 209.7C760 211.3 800 216.7 840 214.8C880 213 920 204 940 199.5L960 195L960 172L940 176.5C920 181 880 190 840 188.2C800 186.3 760 173.7 720 168.2C680 162.7 640 164.3 600 168.8C560 173.3 520 180.7 480 179.8C440 179 400 170 360 171.8C320 173.7 280 186.3 240 188.2C200 190 160 181 120 181C80 181 40 190 20 194.5L0 199Z" fill="#d2d2d0"></path><path d="M0 325L20 323.2C40 321.3 80 317.7 120 320.3C160 323 200 332 240 338.3C280 344.7 320 348.3 360 346.5C400 344.7 440 337.3 480 336.5C520 335.7 560 341.3 600 336.8C640 332.3 680 317.7 720 320.3C760 323 800 343 840 343C880 343 920 323 940 313L960 303L960 193L940 197.5C920 202 880 211 840 212.8C800 214.7 760 209.3 720 207.7C680 206 640 208 600 209.8C560 211.7 520 213.3 480 210.5C440 207.7 400 200.3 360 203C320 205.7 280 218.3 240 221.2C200 224 160 217 120 218C80 219 40 228 20 232.5L0 237Z" fill="#cacac7"></path><path d="M0 455L20 453.2C40 451.3 80 447.7 120 444C160 440.3 200 436.7 240 439.3C280 442 320 451 360 453.7C400 456.3 440 452.7 480 450.8C520 449 560 449 600 449C640 449 680 449 720 449C760 449 800 449 840 449C880 449 920 449 940 449L960 449L960 301L940 311C920 321 880 341 840 341C800 341 760 321 720 318.3C680 315.7 640 330.3 600 334.8C560 339.3 520 333.7 480 334.5C440 335.3 400 342.7 360 344.5C320 346.3 280 342.7 240 336.3C200 330 160 321 120 318.3C80 315.7 40 319.3 20 321.2L0 323Z" fill="#bdbcb8"></path><path d="M0 498L20 497C40 496 80 494 120 492.2C160 490.3 200 488.7 240 489.7C280 490.7 320 494.3 360 497C400 499.7 440 501.3 480 501.3C520 501.3 560 499.7 600 497C640 494.3 680 490.7 720 489.7C760 488.7 800 490.3 840 490.3C880 490.3 920 488.7 940 487.8L960 487L960 447L940 447C920 447 880 447 840 447C800 447 760 447 720 447C680 447 640 447 600 447C560 447 520 447 480 448.8C440 450.7 400 454.3 360 451.7C320 449 280 440 240 437.3C200 434.7 160 438.3 120 442C80 445.7 40 449.3 20 451.2L0 453Z" fill="#b1aea9"></path><path d="M0 541L20 541C40 541 80 541 120 541C160 541 200 541 240 541C280 541 320 541 360 541C400 541 440 541 480 541C520 541 560 541 600 541C640 541 680 541 720 541C760 541 800 541 840 541C880 541 920 541 940 541L960 541L960 485L940 485.8C920 486.7 880 488.3 840 488.3C800 488.3 760 486.7 720 487.7C680 488.7 640 492.3 600 495C560 497.7 520 499.3 480 499.3C440 499.3 400 497.7 360 495C320 492.3 280 488.7 240 487.7C200 486.7 160 488.3 120 490.2C80 492 40 494 20 495L0 496Z" fill="#a5a19b"></path></svg>